HIERARCHY
ROOT root
{
	OFFSET	0	13.1	24.9
	CHANNELS 6  Xposition Yposition Zposition Xrotation Yrotation Zrotation
	JOINT spine_1
	{
		OFFSET	0	9.99999	0
		CHANNELS 3  Xrotation Yrotation Zrotation
		JOINT spine_2
		{
			OFFSET	0	112	-10
			CHANNELS 3  Xrotation Yrotation Zrotation
			JOINT spine_3
			{
				OFFSET	0	206.5	19.3
				CHANNELS 3  Xrotation Yrotation Zrotation
				JOINT spine_4
				{
					OFFSET	0	110.4	14.6
					CHANNELS 3  Xrotation Yrotation Zrotation
					JOINT neck_1
					{
						OFFSET	0	71.8	-50.3
						CHANNELS 3  Xrotation Yrotation Zrotation
						JOINT neck_2
						{
							OFFSET	0	86.2	-25.8
							CHANNELS 3  Xrotation Yrotation Zrotation
							JOINT head_ee
							{
								OFFSET	0	179.8	-8.7
								CHANNELS 3  Xrotation Yrotation Zrotation
								End Site
								{
									OFFSET	1	0	0
								}
							}
						}
					}
					JOINT left_clavicle
					{
						OFFSET	-43.2	22.4	-70.8
						CHANNELS 3  Xrotation Yrotation Zrotation
						JOINT left_shoulder
						{
							OFFSET	-93.9	-5.79999	48.7
							CHANNELS 3  Xrotation Yrotation Zrotation
							JOINT left_elbow
							{
								OFFSET	-291.4	-30.8	15.2
								CHANNELS 3  Xrotation Yrotation Zrotation
								JOINT left_lowarm_twist
								{
									OFFSET	-110.7	-3.89999	13.6
									CHANNELS 3  Xrotation Yrotation Zrotation
									JOINT left_hand
									{
										OFFSET	-110.7	-3.89999	13.6
										CHANNELS 3  Xrotation Yrotation Zrotation
										JOINT left_ee
										{
											OFFSET	-80.8	-5.10001	12.1
											CHANNELS 3  Xrotation Yrotation Zrotation
											End Site
											{
												OFFSET	1	0	0
											}
										}
									}
								}
							}
						}
					}
					JOINT right_clavicle
					{
						OFFSET	43.2	22.4	-70.8
						CHANNELS 3  Xrotation Yrotation Zrotation
						JOINT right_shoulder
						{
							OFFSET	93.9	-5.79999	48.7
							CHANNELS 3  Xrotation Yrotation Zrotation
							JOINT right_elbow
							{
								OFFSET	291.4	-30.8	15.2
								CHANNELS 3  Xrotation Yrotation Zrotation
								JOINT right_lowarm_twist
								{
									OFFSET	110.7	-3.89999	13.6
									CHANNELS 3  Xrotation Yrotation Zrotation
									JOINT right_hand
									{
										OFFSET	110.7	-3.89999	13.6
										CHANNELS 3  Xrotation Yrotation Zrotation
										JOINT right_ee
										{
											OFFSET	80.8	-5.10001	12.1
											CHANNELS 3  Xrotation Yrotation Zrotation
											End Site
											{
												OFFSET	1	0	0
											}
										}
									}
								}
							}
						}
					}
				}
			}
		}
	}
	JOINT left_hip
	{
		OFFSET	-82.8	-127.5	0.300001
		CHANNELS 3  Xrotation Yrotation Zrotation
		JOINT left_knee
		{
			OFFSET	-28.2	-396.7	2.2
			CHANNELS 3  Xrotation Yrotation Zrotation
			JOINT left_ankle
			{
				OFFSET	-11.7	-411.3	35.4
				CHANNELS 3  Xrotation Yrotation Zrotation
				JOINT left_toes
				{
					OFFSET	0	-60	-88.6
					CHANNELS 3  Xrotation Yrotation Zrotation
					JOINT left_foot_ee
					{
						OFFSET	-22.5	-16.5	-42.2
						CHANNELS 3  Xrotation Yrotation Zrotation
						End Site
						{
							OFFSET	1	0	0
						}
					}
				}
			}
		}
	}
	JOINT right_hip
	{
		OFFSET	82.8	-127.5	0.300001
		CHANNELS 3  Xrotation Yrotation Zrotation
		JOINT right_knee
		{
			OFFSET	28.2	-396.7	2.2
			CHANNELS 3  Xrotation Yrotation Zrotation
			JOINT right_ankle
			{
				OFFSET	11.7	-411.3	35.4
				CHANNELS 3  Xrotation Yrotation Zrotation
				JOINT right_toes
				{
					OFFSET	0	-60	-88.6
					CHANNELS 3  Xrotation Yrotation Zrotation
					JOINT right_foot_ee
					{
						OFFSET	22.5	-16.5	-42.2
						CHANNELS 3  Xrotation Yrotation Zrotation
						End Site
						{
							OFFSET	1	0	0
						}
					}
				}
			}
		}
	}
}
MOTION
Frames: 6
Frame Time: 0.02
2515.07 655.152 -1527.85 -2.70102 70.3048 4.29765 0.0886672 -0.0279294 -0.69967 0.0889394 0.0166479 -0.700029 0.0888453 0.162358 -0.681145 0.0882017 0.0527485 -0.698237 -0.927774 21.1636 3.14282 -0.0558132 35.6381 5.58798 -0.0 0.0 -0.0 4.4522 19.8773 8.90506 9.21588 -24.478 64.2361 2.19245 -47.3566 0.961522 -11.8558 -0.565235 1.40381 1.82321 10.4982 16.226 -0.0 0.0 -0.0 12.0114 0.503925 -23.9237 -25.101 22.4814 -59.7691 0.172706 4.89006 -0.00737445 -17.2694 0.917443 -2.00022 5.9403 14.3053 -35.9513 0.0 0.0 0.0 -25.2573 34.2222 8.28659 -4.2764 0.152299 0.638475 30.2466 -17.926 -4.28351 -16.5862 0.0 0.0 -0.0 0.0 -0.0 38.0106 33.0781 -16.4479 -0.276899 -0.0113025 -0.0409897 -10.8605 -20.0485 -1.65326 -35.5922 0.0 0.0 0.0 0.0 0.0 
2490.92 660.724 -1532.87 -4.95167 70.9972 6.25734 0.412076 -0.0240957 -0.464139 0.412196 0.00548715 -0.464732 0.412191 0.0997793 -0.453927 0.411905 0.0268386 -0.463989 -0.651872 20.1181 4.23598 0.0994703 32.7781 6.61144 -0.0 0.0 -0.0 4.1801 20.6767 8.49427 6.98977 -25.0011 64.512 2.08387 -45.9047 0.882587 -12.089 -0.579229 1.43016 2.19934 7.97816 17.8807 -0.0 0.0 -0.0 11.9518 -1.17952 -23.6576 -23.3414 21.8537 -60.5091 0.177101 5.01387 -0.0077539 -17.5435 0.936769 -2.02952 5.75792 14.1096 -34.5958 0.0 0.0 0.0 -24.3761 34.2268 7.32749 -5.27498 0.180963 0.789043 28.3711 -18.5907 -4.08948 -17.3348 0.0 0.0 -0.0 0.0 -0.0 36.7587 33.4324 -16.0096 -0.752064 -0.0302358 -0.111452 -11.5398 -17.527 -1.74438 -34.8853 0.0 0.0 0.0 0.0 0.0 
2462.94 660.106 -1535.73 -7.87702 72.3808 9.22046 0.671238 0.012075 -0.470705 0.671361 0.0420024 -0.468983 0.671042 0.13436 -0.451284 0.670763 0.0614032 -0.466839 -0.624575 19.7215 4.18877 0.0941385 32.0867 6.52335 -0.0 0.0 -0.0 4.06651 21.2971 8.32502 4.61037 -25.4992 64.6158 1.98932 -44.5751 0.815443 -12.4536 -0.601333 1.47125 2.65539 5.98955 20.3263 -0.0 0.0 -0.0 12.101 0.350644 -24.1048 -22.5265 21.2168 -61.2166 0.177317 5.01996 -0.00777279 -18.1134 0.977389 -2.09014 5.79178 13.649 -35.1496 0.0 0.0 0.0 -23.9137 33.0824 6.32008 -4.91171 0.170839 0.734212 25.8454 -19.3473 -3.80925 -18.1654 0.0 0.0 -0.0 0.0 -0.0 35.712 33.6782 -15.5685 -1.20301 -0.0476615 -0.178462 -10.4257 -13.8873 -1.56159 -34.0448 0.0 0.0 0.0 0.0 0.0 
2440.98 656.268 -1545.04 -10.5665 73.072 12.0614 0.869949 0.0329505 -0.354075 0.870017 0.0554143 -0.35126 0.869685 0.122954 -0.333672 0.869536 0.0687145 -0.348902 0.335792 18.8111 3.26919 1.08659 30.9135 5.248 -0.0 0.0 -0.0 3.75044 21.4229 7.86687 2.94993 -25.7504 64.6343 1.86909 -42.7921 0.732396 -13.2963 -0.653408 1.56568 2.62774 5.0385 19.7846 -0.0 0.0 -0.0 12.3113 0.313531 -24.5556 -21.4043 20.6516 -62.1914 0.156032 4.41993 -0.00602129 -18.362 0.995303 -2.11646 5.7676 13.8347 -34.8412 0.0 0.0 0.0 -22.2003 31.657 3.80753 -8.24688 0.250681 1.23973 27.0747 -18.3434 -3.92735 -18.5351 0.0 0.0 -0.0 0.0 -0.0 34.9586 33.9036 -15.4319 -1.00594 -0.0401113 -0.149161 -8.43199 -11.3669 -1.25567 -33.993 0.0 0.0 0.0 0.0 0.0 
2409.33 655.785 -1552.67 -8.13576 73.7656 9.9397 1.01676 0.116546 -0.249495 1.01678 0.132186 -0.241574 1.01622 0.176283 -0.211554 1.01618 0.14066 -0.23674 -0.446923 17.4676 1.4772 0.201474 30.1368 3.37837 -0.0 0.0 -0.0 3.26209 23.4252 7.19382 0.247747 -27.0591 64.7464 1.77944 -41.3918 0.672294 -13.2042 -0.647647 1.55539 2.93666 3.22514 21.2926 -0.0 0.0 -0.0 12.4105 0.540057 -24.7893 -21.1139 20.2475 -63.4008 0.183479 5.19349 -0.00832127 -19.4052 1.0717 -2.22604 5.41426 11.716 -33.2495 0.0 0.0 0.0 -20.7361 30.8538 1.5429 -11.8433 0.303654 1.78895 26.6784 -16.0361 -3.81201 -20.5812 0.0 0.0 -0.0 0.0 -0.0 32.8771 34.6584 -15.9304 -3.16345 -0.117262 -0.471266 0.277078 -10.0095 0.0405372 -36.8739 0.0 0.0 0.0 0.0 0.0 
2370.52 658.039 -1558.12 -5.97352 73.5532 7.82653 1.43365 0.3096 -0.0996941 1.4336 0.315317 -0.0797912 1.43314 0.324649 -0.0198618 1.43329 0.317437 -0.0708852 1.87558 16.4429 0.413684 2.66835 28.6485 1.6366 -0.0 0.0 -0.0 2.52996 23.9226 6.19986 -4.60352 -27.3133 64.4334 1.67163 -39.6242 0.60226 -13.7351 -0.681078 1.61455 2.99031 2.15292 21.2659 -0.0 0.0 -0.0 12.3289 1.04331 -24.652 -19.7786 19.6472 -65.5077 0.188809 5.34348 -0.00881065 -19.5435 1.08198 -2.24047 5.33818 10.3534 -33.4012 0.0 0.0 0.0 -18.9275 28.6574 -0.295242 -14.9318 0.321569 2.26243 29.2395 -15.2957 -4.08949 -23.1218 0.0 0.0 -0.0 0.0 -0.0 30.3027 35.4139 -16.0954 -5.42019 -0.184912 -0.810977 9.7286 -4.45985 1.38663 -40.1538 0.0 0.0 0.0 0.0 0.0 
